<?xml version="1.0" standalone="no"?>
<!DOCTYPE svg PUBLIC "-//W3C//DTD SVG 20010904//EN"
 "http://www.w3.org/TR/2001/REC-SVG-20010904/DTD/svg10.dtd">
<svg version="1.0" xmlns="http://www.w3.org/2000/svg"
 width="225.000000pt" height="225.000000pt" viewBox="0 0 225.000000 225.000000"
 preserveAspectRatio="xMidYMid meet">
<metadata>
Created by potrace 1.14, written by Peter Selinger 2001-2017
</metadata>
<g transform="translate(0.000000,225.000000) scale(0.100000,-0.100000)"
fill="#000000" stroke="none">
<path d="M1007 1968 c-23 -18 -212 -441 -273 -611 l-49 -138 -119 -147 c-106
-131 -156 -198 -301 -402 -22 -31 -48 -67 -57 -80 l-18 -24 -29 28 c-48 46
-77 35 -122 -49 -34 -62 -38 -78 -38 -140 l0 -70 53 111 c29 61 58 114 63 117
6 4 33 -17 62 -45 28 -29 51 -47 51 -41 0 6 -7 14 -16 17 -8 3 -12 11 -9 16 5
8 12 7 23 -2 14 -10 15 -10 5 2 -15 17 -17 34 -3 25 5 -3 7 0 5 7 -5 12 30 64
149 221 12 15 44 56 72 90 27 34 69 90 92 124 23 34 70 93 103 130 76 85 77
88 137 269 53 159 236 554 258 554 6 0 31 -30 55 -67 24 -38 60 -91 81 -119
31 -41 50 -90 105 -270 46 -152 76 -233 98 -264 96 -140 119 -170 127 -170 5
0 31 18 59 40 28 22 55 40 59 40 5 0 69 -102 144 -227 124 -207 144 -235 237
-330 56 -56 107 -103 114 -103 6 0 26 16 45 35 32 33 35 34 57 20 22 -15 23
-14 23 8 0 54 -43 61 -96 15 l-36 -32 -89 90 c-79 79 -103 113 -215 304 -155
262 -160 270 -185 270 -11 0 -41 -16 -66 -35 -25 -19 -49 -35 -53 -35 -5 0
-91 111 -112 144 -3 6 -36 108 -72 226 -37 118 -70 220 -74 227 -4 6 -27 40
-51 75 -25 34 -65 92 -89 128 -58 84 -71 93 -105 68z"/>
<path d="M2140 185 c0 -30 -4 -63 -9 -73 -5 -9 -12 -24 -14 -33 -3 -8 -23 -21
-45 -27 -23 -7 -59 -21 -81 -30 l-40 -18 65 -2 c63 -2 65 -1 59 20 -4 14 -3
18 2 11 7 -9 16 -7 38 7 17 11 30 24 30 29 0 5 3 13 8 17 4 4 7 12 7 18 0 6
-4 5 -9 -2 -4 -8 -6 20 -3 62 2 42 2 76 -2 76 -3 0 -6 -25 -6 -55z m-93 -171
c-3 -3 -12 -4 -19 -1 -8 3 -5 6 6 6 11 1 17 -2 13 -5z"/>
<path d="M2164 166 c-4 -23 -1 -45 9 -65 13 -26 13 -31 1 -34 -8 -3 -6 -4 3
-3 10 1 17 8 16 14 -2 7 4 12 13 12 13 0 15 6 9 28 -4 15 -8 33 -8 40 0 6 -4
12 -9 12 -4 0 -8 7 -8 15 0 29 -19 15 -26 -19z m26 -16 c0 -11 -4 -20 -10 -20
-5 0 -10 9 -10 20 0 11 5 20 10 20 6 0 10 -9 10 -20z"/>
<path d="M0 105 c0 -11 11 -15 40 -15 25 0 40 -5 40 -12 1 -29 54 -53 120 -54
36 0 79 -2 95 -3 l30 -3 -30 -8 c-23 -6 -13 -8 40 -8 l70 -1 -70 21 c-38 11
-93 21 -122 21 -42 1 -50 4 -41 14 8 10 4 12 -21 7 -23 -5 -32 -2 -37 10 -3 8
-22 18 -42 22 -21 4 -45 11 -54 16 -13 6 -18 5 -18 -7z"/>
<path d="M1865 80 c-4 -6 -16 -8 -28 -5 -13 4 -17 3 -10 -2 6 -4 -45 -9 -112
-11 -110 -3 -129 -6 -172 -29 -26 -13 -49 -26 -51 -28 -2 -2 54 -3 125 -4 90
-1 140 3 168 14 l40 14 -32 1 c-18 0 -33 4 -33 10 0 6 18 7 45 4 38 -6 48 -3
75 20 27 22 29 26 11 26 -11 0 -23 -5 -26 -10z m-176 -36 c35 -7 40 -19 11
-27 -13 -3 -20 0 -20 9 0 19 -67 19 -86 -1 -9 -8 -23 -15 -32 -15 -12 0 -7 7
13 20 31 21 61 24 114 14z"/>
<path d="M2225 70 c-19 -8 -19 -9 3 -9 12 -1 22 4 22 9 0 6 -1 10 -2 9 -2 0
-12 -4 -23 -9z"/>
</g>
</svg>
